<svg width="20" height="20" viewBox="0 0 20 20" fill="none" xmlns="http://www.w3.org/2000/svg">
<path d="M10 6.20703C7.75 6.20703 5.95703 8.03516 5.95703 10.25C5.95703 12.5 7.75 14.293 10 14.293C12.2148 14.293 14.043 12.5 14.043 10.25C14.043 8.03516 12.2148 6.20703 10 6.20703ZM10 12.8867C8.55859 12.8867 7.36328 11.7266 7.36328 10.25C7.36328 8.80859 8.52344 7.64844 10 7.64844C11.4414 7.64844 12.6016 8.80859 12.6016 10.25C12.6016 11.7266 11.4414 12.8867 10 12.8867ZM15.1328 6.06641C15.1328 5.53906 14.7109 5.11719 14.1836 5.11719C13.6562 5.11719 13.2344 5.53906 13.2344 6.06641C13.2344 6.59375 13.6562 7.01562 14.1836 7.01562C14.7109 7.01562 15.1328 6.59375 15.1328 6.06641ZM17.8047 7.01562C17.7344 5.75 17.4531 4.625 16.5391 3.71094C15.625 2.79688 14.5 2.51562 13.2344 2.44531C11.9336 2.375 8.03125 2.375 6.73047 2.44531C5.46484 2.51562 4.375 2.79688 3.42578 3.71094C2.51172 4.625 2.23047 5.75 2.16016 7.01562C2.08984 8.31641 2.08984 12.2188 2.16016 13.5195C2.23047 14.7852 2.51172 15.875 3.42578 16.8242C4.375 17.7383 5.46484 18.0195 6.73047 18.0898C8.03125 18.1602 11.9336 18.1602 13.2344 18.0898C14.5 18.0195 15.625 17.7383 16.5391 16.8242C17.4531 15.875 17.7344 14.7852 17.8047 13.5195C17.875 12.2188 17.875 8.31641 17.8047 7.01562ZM16.1172 14.8906C15.8711 15.5938 15.3086 16.1211 14.6406 16.4023C13.5859 16.8242 11.125 16.7188 10 16.7188C8.83984 16.7188 6.37891 16.8242 5.35938 16.4023C4.65625 16.1211 4.12891 15.5938 3.84766 14.8906C3.42578 13.8711 3.53125 11.4102 3.53125 10.25C3.53125 9.125 3.42578 6.66406 3.84766 5.60938C4.12891 4.94141 4.65625 4.41406 5.35938 4.13281C6.37891 3.71094 8.83984 3.81641 10 3.81641C11.125 3.81641 13.5859 3.71094 14.6406 4.13281C15.3086 4.37891 15.8359 4.94141 16.1172 5.60938C16.5391 6.66406 16.4336 9.125 16.4336 10.25C16.4336 11.4102 16.5391 13.8711 16.1172 14.8906Z" fill="white"/>
</svg>
