<svg width="20" height="20" viewBox="0 0 20 20" fill="none" xmlns="http://www.w3.org/2000/svg">
<path d="M14.9831 5.37727C14.8765 5.32214 14.7727 5.26171 14.6722 5.1962C14.38 5.003 14.1121 4.77537 13.8742 4.51822C13.2783 3.83673 13.0558 3.14541 12.9744 2.66184H12.9772C12.9092 2.25968 12.9372 2 12.9422 2H10.2295V12.4877C10.2295 12.628 10.2295 12.7677 10.2239 12.9053C10.2239 12.9221 10.2218 12.9375 10.2211 12.9565C10.2211 12.9635 10.2211 12.9719 10.219 12.9796V12.986C10.1905 13.3622 10.07 13.7256 9.86806 14.0443C9.66613 14.363 9.38896 14.6272 9.06095 14.8136C8.71875 15.0082 8.33171 15.1103 7.938 15.1097C6.67469 15.1097 5.64999 14.0794 5.64999 12.807C5.64999 11.5338 6.67469 10.5035 7.938 10.5035C8.17733 10.5035 8.41526 10.5414 8.64266 10.6158L8.64616 7.85338C7.95556 7.76428 7.25398 7.81931 6.58572 8.01501C5.91745 8.21071 5.29702 8.54281 4.76356 8.99037C4.29603 9.39641 3.90295 9.88093 3.60201 10.4221C3.48761 10.6193 3.05528 11.4131 3.00334 12.7003C2.97035 13.4302 3.19003 14.1882 3.29461 14.5005V14.5076C3.35988 14.6914 3.61535 15.3203 4.03084 15.8502C4.3659 16.2755 4.76177 16.6492 5.20573 16.9591V16.9521L5.21204 16.9591C6.52449 17.8504 7.98082 17.7922 7.98082 17.7922C8.23278 17.7817 9.0771 17.7922 10.0358 17.3381C11.0991 16.8342 11.7041 16.0839 11.7041 16.0839C12.0909 15.6355 12.3985 15.1245 12.6137 14.5728C12.8593 13.9271 12.9407 13.1537 12.9407 12.8449V7.27997C12.9737 7.29962 13.4124 7.58948 13.4124 7.58948C13.4124 7.58948 14.044 7.99445 15.0287 8.25764C15.7348 8.44503 16.6872 8.48504 16.6872 8.48504V5.79206C16.3538 5.82856 15.6765 5.72328 14.9824 5.37797L14.9831 5.37727Z" fill="white"/>
</svg>
