<svg width="20" height="20" viewBox="0 0 20 20" fill="none" xmlns="http://www.w3.org/2000/svg">
<g clip-path="url(#clip0_13341_35905)">
<path d="M17.1367 6.59375C17.8398 6.06641 18.4727 5.43359 18.9648 4.69531C18.332 4.97656 17.5938 5.1875 16.8555 5.25781C17.6289 4.80078 18.1914 4.09766 18.4727 3.21875C17.7695 3.64062 16.9609 3.95703 16.1523 4.13281C15.4492 3.39453 14.5 2.97266 13.4453 2.97266C11.4062 2.97266 9.75391 4.625 9.75391 6.66406C9.75391 6.94531 9.78906 7.22656 9.85938 7.50781C6.80078 7.33203 4.05859 5.85547 2.23047 3.64062C1.91406 4.16797 1.73828 4.80078 1.73828 5.50391C1.73828 6.76953 2.37109 7.89453 3.39062 8.5625C2.79297 8.52734 2.19531 8.38672 1.70312 8.10547V8.14062C1.70312 9.93359 2.96875 11.4102 4.65625 11.7617C4.375 11.832 4.02344 11.9023 3.70703 11.9023C3.46094 11.9023 3.25 11.8672 3.00391 11.832C3.46094 13.3086 4.83203 14.3633 6.44922 14.3984C5.18359 15.3828 3.60156 15.9805 1.87891 15.9805C1.5625 15.9805 1.28125 15.9453 1 15.9102C2.61719 16.9648 4.55078 17.5625 6.66016 17.5625C13.4453 17.5625 17.1367 11.9727 17.1367 7.08594C17.1367 6.91016 17.1367 6.76953 17.1367 6.59375Z" fill="white"/>
</g>
<defs>
<clipPath id="clip0_13341_35905">
<rect width="20" height="20" fill="white"/>
</clipPath>
</defs>
</svg>
