<svg width="36" height="36" viewBox="0 0 36 36" fill="none" xmlns="http://www.w3.org/2000/svg">
<path d="M27.1758 13.6445C26.9648 12.8008 26.2969 12.1328 25.4883 11.9219C23.9766 11.5 18 11.5 18 11.5C18 11.5 11.9883 11.5 10.4766 11.9219C9.66797 12.1328 9 12.8008 8.78906 13.6445C8.36719 15.1211 8.36719 18.2852 8.36719 18.2852C8.36719 18.2852 8.36719 21.4141 8.78906 22.9258C9 23.7695 9.66797 24.4023 10.4766 24.6133C11.9883 25 18 25 18 25C18 25 23.9766 25 25.4883 24.6133C26.2969 24.4023 26.9648 23.7695 27.1758 22.9258C27.5977 21.4141 27.5977 18.2852 27.5977 18.2852C27.5977 18.2852 27.5977 15.1211 27.1758 13.6445ZM16.0312 21.1328V15.4375L21.0234 18.2852L16.0312 21.1328Z" fill="white"/>
</svg>
